<svg xmlns="http://www.w3.org/2000/svg" width="900" height="520">
  <!-- PDV -->
  <rect x="380" y="40" width="140" height="50" fill="#28a745" rx="6"/>
  <text x="410" y="70" fill="white" font-family="Arial" font-size="14">PDV</text>
  <title>Responsável pelas vendas</title>

  <!-- Produtos -->
  <rect x="100" y="160" width="140" height="50" fill="#007bff" rx="6"/>
  <text x="120" y="190" fill="white" font-family="Arial" font-size="14">Produtos</text>

  <!-- Estoque -->
  <rect x="280" y="160" width="140" height="50" fill="#6610f2" rx="6"/>
  <text x="310" y="190" fill="white" font-family="Arial" font-size="14">Estoque</text>

  <!-- Clientes -->
  <rect x="460" y="160" width="140" height="50" fill="#20c997" rx="6"/>
  <text x="490" y="190" fill="white" font-family="Arial" font-size="14">Clientes</text>

  <!-- Contas a Receber -->
  <rect x="640" y="160" width="180" height="50" fill="#ffc107" rx="6"/>
  <text x="660" y="190" fill="#000" font-family="Arial" font-size="14">Contas a Receber</text>

  <!-- Relatórios -->
  <rect x="180" y="290" width="180" height="50" fill="#6f42c1" rx="6"/>
  <text x="220" y="320" fill="white" font-family="Arial" font-size="14">Relatórios</text>

  <!-- Backup -->
  <rect x="400" y="290" width="140" height="50" fill="#343a40" rx="6"/>
  <text x="430" y="320" fill="white" font-family="Arial" font-size="14">Backup</text>

  <!-- Licenciamento -->
  <rect x="580" y="290" width="180" height="50" fill="#6c757d" rx="6"/>
  <text x="600" y="320" fill="white" font-family="Arial" font-size="14">Licenciamento</text>

  <!-- Conexões -->
  <line x1="450" y1="90" x2="450" y2="160" stroke="#000" stroke-width="1"/>
  <polygon points="445,155 450,160 455,155" fill="#000"/>

  <line x1="380" y1="65" x2="240" y2="160" stroke="#000" stroke-width="1"/>
  <polygon points="243,157 240,160 243,163" fill="#000"/>

  <line x1="520" y1="65" x2="640" y2="160" stroke="#000" stroke-width="1"/>
  <polygon points="637,157 640,160 637,163" fill="#000"/>

  <line x1="380" y1="65" x2="160" y2="160" stroke="#000" stroke-width="1"/>
  <polygon points="163,157 160,160 163,163" fill="#000"/>

  <line x1="450" y1="210" x2="450" y2="290" stroke="#000" stroke-width="1"/>
  <polygon points="445,285 450,290 455,285" fill="#000"/>

  <line x1="250" y1="210" x2="250" y2="290" stroke="#000" stroke-width="1"/>
  <polygon points="245,285 250,290 255,285" fill="#000"/>

  <line x1="640" y1="210" x2="670" y2="290" stroke="#000" stroke-width="1"/>
  <polygon points="667,287 670,290 667,293" fill="#000"/>
</svg>
